<svg id="Layer_1" data-name="Layer 1" xmlns="http://www.w3.org/2000/svg" viewBox="0 0 310 310"><defs><style>.cls-1{fill:#fff;}</style></defs><title>boleto_simples-icon</title><g id="boletosimples"><path class="cls-1" d="M96.48,8c-14.5,1.07-17.27,6-17.29,24.36q-0.12,120.45,0,240.9c0,19.21,2.89,24.32,17.22,25.94C96.38,206.89,96.44,83.77,96.48,8Z"/><path class="cls-1" d="M243.61,124.67c-2.7-33.53-33.85-54-66.9-49.72-19.74,2.57-34.48,13.33-47.33,35.18,0-29.18.17-53.16-.05-77.14-0.18-20.28-2.53-24.56-19-25.14l-0.33,291.94c16.11-.91,21.07-11.17,18.92-30.82,4.68,5.55,6.16,7.18,7.5,8.92,16.42,21.27,37.74,28.51,63.66,21.9,25.55-6.52,42.11-24.26,43.74-49.08C246.49,208.83,247,166.45,243.61,124.67ZM195.21,227.24c-1.08,17.38-12.31,28.72-28.38,30.15-16.53,1.46-33.12-8.62-34.38-25.53a547.41,547.41,0,0,1-.08-85.45c1.6-19.36,17.14-28.17,36.85-26.2,16,1.6,25.25,12.78,26.25,31.59,0.06,1.17.07,2.34,0.07,3.51q0,16.67,0,33.34h-0.19C195.36,201.51,196,214.42,195.21,227.24Z"/></g></svg>