<svg id="Layer_1" data-name="Layer 1" xmlns="http://www.w3.org/2000/svg" xmlns:xlink="http://www.w3.org/1999/xlink" viewBox="0 0 310 310"><defs><style>.cls-1{fill:#fff;}.cls-2{fill:url(#linear-gradient);}.cls-3{fill:url(#linear-gradient-2);}.cls-4{fill:url(#linear-gradient-3);}</style><linearGradient id="linear-gradient" x1="84.84" y1="101.56" x2="84.84" y2="155.87" gradientUnits="userSpaceOnUse"><stop offset="0.09" stop-color="#00aeef"/><stop offset="0.3" stop-color="#00aeef"/></linearGradient><linearGradient id="linear-gradient-2" x1="215.47" y1="101.56" x2="215.47" y2="155.87" xlink:href="#linear-gradient"/><linearGradient id="linear-gradient-3" x1="178.09" y1="136.67" x2="107.63" y2="136.67" xlink:href="#linear-gradient"/></defs><title>Artboard 1</title><path class="cls-1" d="M3.5,117.27H18.64v48.87H43.89v13H3.5Z"/><polygon class="cls-1" points="54.86 179.11 70.38 179.11 78.84 149.62 65.66 147.34 54.86 179.11"/><polygon class="cls-2" points="91.79 117.27 83.83 117.27 75.88 117.27 67.73 141.25 80.6 143.48 83.83 132.19 87.41 144.66 101.96 147.19 91.79 117.27"/><polygon class="cls-1" points="104.29 154.04 89.35 151.45 97.28 179.11 112.81 179.11 104.29 154.04"/><polygon class="cls-1" points="123.77 179.11 138.91 179.11 138.91 160.54 123.77 157.91 123.77 179.11"/><polygon class="cls-1" points="234.65 147.33 221.47 149.61 229.93 179.11 245.45 179.11 234.65 147.33"/><polygon class="cls-1" points="187.5 179.11 203.03 179.11 210.96 151.44 196.03 154.03 187.5 179.11"/><polygon class="cls-3" points="224.44 117.27 216.48 117.27 208.52 117.27 198.35 147.18 212.91 144.66 216.48 132.19 219.71 143.47 232.59 141.24 224.44 117.27"/><polygon class="cls-1" points="161.4 179.11 176.54 179.11 176.54 157.91 161.4 160.54 161.4 179.11"/><polygon class="cls-4" points="161.4 117.27 161.4 142.17 150.16 144.12 138.91 142.17 138.91 117.27 123.77 117.27 123.77 139.54 123.77 145.05 123.77 145.99 123.77 151.47 123.77 151.5 147.2 155.56 150.16 156.07 153.12 155.56 176.54 151.5 176.54 151.47 176.54 145.99 176.54 145.05 176.54 139.54 176.54 117.27 161.4 117.27"/><path class="cls-1" d="M292.14,153.77v-.17c6.14-3.11,9.25-10.29,9.25-16.87,0-9-4.41-15.31-11.42-18-2.68-1-5.71-1.47-12-1.47H256.42v61.84h15.14V130.24h5.1c7.61,0,9.34,2.77,9.34,7.44s-2.82,7.41-7.36,7.59v0h-6.83l6.83,13,11,20.86H306.5Z"/></svg>