<svg id="Layer_1" data-name="Layer 1" xmlns="http://www.w3.org/2000/svg" viewBox="0 0 310 310"><defs><style>.cls-1{fill:#684d47;}.cls-2{fill:#f5dcba;}.cls-3{fill:#1089c0;}.cls-4{fill:#49b9e3;}.cls-5{fill:#ffd250;}.cls-6{fill:#132030;}.cls-7{fill:#fff;}.cls-8{fill:#eabe8d;}.cls-9{fill:#9c7457;}</style></defs><title>mailchimp-icon</title><g id="mailchimp"><path class="cls-1" d="M291.1,218.59c-0.23.76-22.18,85.14-108.44,85.11-74.56,0-109.9-64.83-109.9-64.83a38.64,38.64,0,0,1-15.51-2.34c-21.88-8-32.37-33.06-24.82-54.06l-12-9.19c-46.57-35.48,85.36-197.82,132-161.09l11.14,9C180.3,11,196.89,5.49,210.38,5.49c9.58,0,17.59,2.77,23,8.61,12.11,13.11,7.76,38.15-8.78,63.49a41.61,41.61,0,0,1,8.61,12.52c5.26,4.06,8.66,10.22,10.36,18.74,1.88,9.47,2.28,23,3.46,28.75,4.46,2,2.56,1.08,7.31,3.46,5,2.48,11,5.49,17.66,11.91,11.86,3,16.39,15.58,9.45,24.18-0.19.23-1,1.22-1.89,2.21a44.61,44.61,0,0,1,4.12,11.73,15.67,15.67,0,0,1,10.88,8.57C298.09,208.26,291.1,218.59,291.1,218.59Zm-34.19,63.72v3.53h1.35v-3.53h1.38V281.2h-4.1v1.11h1.37Zm3.15-1.11v4.65h1.23v-3.35l1,3.35h1.05l1-3.36v3.36h1.23V281.2h-1.93l-0.83,2.67L262,281.2h-1.93Z"/><path class="cls-2" d="M90.36,186.84h0a73.86,73.86,0,0,0,2.83-8.69A55,55,0,0,1,96,198.62h0a42.17,42.17,0,0,0,3.7-6.84C103,211.3,88.77,229.18,70,229.18c-16.66,0-30.17-14.22-30.17-31.77S53.34,165.65,70,165.65a28.79,28.79,0,0,1,12.14,2.68S88.56,171.56,90.36,186.84Zm164.19,68.84c23.39-18.38,27.48-40.51,27.87-41.28,5.76-6.9,4.19-13.7-3.41-13.7a14.2,14.2,0,0,0-4.25.64s0-10.07-4.63-17.92c-3.59,4-13.56,12-26.65,18.25a123,123,0,0,1-48.93,11.6h0c-5.68.25-9.19-.68-11.17,5.94a13.67,13.67,0,0,0,.12,6.82c1.6,5.49,5.78,7.9,11.28,9.18a47.91,47.91,0,0,0,8.6,1.06c41.14,1.15,74.18-30.94,74.58-31.2a6.29,6.29,0,0,0,.7-0.68l-0.41.95c-5.94,13.36-40.35,37.6-74.6,36.9l-0.11,0c-7.94,0-17.59-2.07-22.61-8.3-7.94-9.84-3.82-26.21,8.83-26.59l4.22-.1c31.32-1,59.43-12.47,79.55-36.5,2.77-3.44-.32-8.16-6.32-8.3a0.2,0.2,0,0,1-.14-0.06c-7.11-7.61-13.36-10.3-18.92-13.13-11.66-5.94-10.56-.81-13.27-29.62-0.73-7.77-2.2-18.36-9-22.42a11.09,11.09,0,0,0-5.77-1.52,10.71,10.71,0,0,0-3.38.5c-3.74.83-5.86,2.95-8.52,5.4-12.58,11.6-22.63,8.45-37.64,8.32a28.82,28.82,0,0,0-28.92,24.81h0c-1.16,7.9-.41,15.93.83,19.54a31.38,31.38,0,0,1-5.65-4.8c2.21,13.79,14.79,22.81,14.79,22.81a20.5,20.5,0,0,1-4.83.27s7.18,5.68,13.41,7.66c-1.62,1-9.82,9.1-14.05,20.25-4,10.43-2.35,22.95-2.35,22.95l3.44-5.13s-2.25,11.42,2.1,22.48c1.44-3.29,4.59-9.16,4.59-9.16s-0.5,12.27,5.41,22.31c0.15-2.32,1-8.22,1-8.22s3.39,10.47,11.22,17.79C186.22,276.54,225,278.89,254.55,255.68Z"/><path class="cls-3" d="M36.95,173.54c-0.12,0-11.35-8.28-13-11-9.45-16,7-48.72,18.7-67.34,28.92-46,77.06-82.36,98.93-77.17l22.45,11.59a181.61,181.61,0,0,0-22.2,15.62l-4.78,4s-14,9.39-20.89,15.32C88.38,88.3,61,125,50.83,160.52A38.51,38.51,0,0,0,36.95,173.54Z"/><path class="cls-4" d="M141.62,18h0c-21.87-5.19-70,31.14-98.93,77.17l0,0h0.12l23,18.14c25.3-40.17,57.11-60.88,58-61.49l-3.65-24.58L127,24.05l13.74,4.45-1.05-4.59L141.62,18h0Z"/><path class="cls-5" d="M164.07,29.62l-22.2,15.62-1.55,1.22L120.63,30.37l-0.45-3L127,24.05l13.74,4.45L141,20,141.62,18l6-2.3Z"/><path class="cls-6" d="M207.88,14.31c-14.68,0-31.17,7.72-43.81,15.31-1.77,1-3.53,2.14-5.26,3.25l-6.62-5.55,2.4,8.35q-1.36.94-2.66,1.86l-13.67-4.17,9,7.57c-2.07,1.57-3.91,3-5.44,4.3L120.18,27.33l1.15,8,15.77,13.89s-14,9.39-20.89,15.32C88.38,88.3,61,125,50.84,160.52l0.58-.32,0.24-.12,0.85-.44,0.54-.27,0.87-.4,0.52-.23,0.94-.37,0.44-.17c0.46-.16.92-0.32,1.37-0.45A38.83,38.83,0,0,1,84.48,159C90,145.1,96.6,130.93,107,117.31c8.43-11,16.54-20.9,26.26-26.32,18.42-17.3,68.06-35.65,84-19.75A105.59,105.59,0,0,0,226.94,52C233.58,34.41,233.7,14.31,207.88,14.31Z"/><polygon class="cls-6" points="144.87 29.83 141.62 18.04 139.71 23.91 140.85 28.53 144.87 29.83"/><path class="cls-7" d="M274.76,201.33s0-10.07-4.63-17.92c-3.59,4-13.56,12-26.65,18.25a123,123,0,0,1-48.93,11.6h0c-5.68.25-9.19-.68-11.17,5.94a10.84,10.84,0,0,0-.31,1.86v0.07h0c0,0.21,0,.42,0,0.64,0,0.61,0,1.14,0,1.6v0.14c0,0.29,0,.57.07,0.83v0.08a6,6,0,0,0,.37,1.6h0l0,0.09c1.62,5.42,5.78,7.82,11.26,9.09a47.92,47.92,0,0,0,8.61,1.06C237,237.21,265.14,216,274.59,208A58,58,0,0,0,274.76,201.33ZM178.32,22c8-3.7,16.61-6.62,24.86-7.46-8.19,1.84-18.16,6.09-30,13.32-0.29.17-28,18.85-44.88,35.63C119.1,72.63,82.09,117,82.12,117c6.76-12.8,11.22-19.08,21.93-32.55,6.06-7.62,12.52-15,19.13-21.86q3.34-3.45,6.71-6.69h0A182.9,182.9,0,0,1,178.32,22Z"/><path class="cls-8" d="M254.55,255.68a81.85,81.85,0,0,1-12.48,8.08A39.92,39.92,0,0,1,226.13,252a98.71,98.71,0,0,0,19.8-7.76,108.29,108.29,0,0,0,36.49-29.84C282,215.17,277.94,237.3,254.55,255.68ZM227.65,149c-4.78-3.4-12.7-.69-14.44,4.93,2.77,0.14,5.7,2.23,5.52,4.91a10.6,10.6,0,0,1,7.43-2.91C224.86,153.83,225.52,150.22,227.65,149Zm-50.16,68.66c1.51-5.61,5.76-10,12.28-10.24l4.22-.1c31.32-1,59.43-12.47,79.55-36.5,2.77-3.44-.32-8.16-6.32-8.3h-0.09c-1,1.07-1.2,3-2.87,6-6.12,10.63-14.59,15.5-25.88,21.14-34.61,17.23-52.56,9.21-59.77,19.76-2.09,3.11-2.13,6.57-1.13,8.29h0Zm62.63-72.27c-3.31-2.38-3.43-6.52-5.23-25.68-0.58-6.11-1.61-14-5.35-19a5.09,5.09,0,0,0-3.43-1.45c-2.36-.1-5,2.34-6.55,4-4.3,6.2-8.41,10.2-15.67,13.66a47.2,47.2,0,0,1-21.59,4.31c-5.31-.17-10-1-14.52-1.1-8.44-.13-15.76,2.61-21.1,9.34-3.66,4.62-5.13,9.5-5.59,15.32,0,0.7,0,1.36.09,2,0.06,0.92.15,1.81,0.25,2.63a24.36,24.36,0,0,0,.9,4.47,0.23,0.23,0,0,1,0,.07l0.13,0.42a31.38,31.38,0,0,1-5.65-4.8c1.84,11.5,10.89,19.68,13.85,22.08l0.52,0.4,0,0,0.39,0.29a20.5,20.5,0,0,1-4.83.27s7.18,5.68,13.41,7.66a46.56,46.56,0,0,1,25.3-10.49c4.66-2.89,9.67-5.73,15-8.47C198.89,151.16,207.88,141,219.2,140c8.54-.62,12.69,3.21,15.68,7.3,1.62-.52,3.45-1.08,5.5-1.69A1.73,1.73,0,0,1,240.12,145.37Zm4.08,68.29a1.67,1.67,0,0,0-.32.05c-3.41.79-38.59,14.42-60.82,7.43a13.37,13.37,0,0,0,.43,4.88h0a65.07,65.07,0,0,0,12.56,1.11C225.32,227.14,246.41,213.84,244.21,213.66Zm-163.7-2.73,0,0a8.49,8.49,0,0,0,2.11-7.15c-0.66-3.68-4.83-4.43-7.59-7.29l-0.13-.14-0.14-.15h0a6.17,6.17,0,0,1-1.57-4.5c0.22-3.77,3.56-4.83,5.3-4.13a7,7,0,0,1,3.66,2.72h0a8.87,8.87,0,0,0-1.44-3.7c-2.05-2.91-6.76-5.86-13.44-4.45h0a13.27,13.27,0,0,0-1.76.46,4.61,4.61,0,0,0-.51.17c-0.38.18-.74,0.3-1.08,0.48h0a15,15,0,0,0-2.39,1.46C54,194.37,66.76,211.94,80.51,210.93Z"/><path class="cls-9" d="M191.19,151.29c0.63,0.93.8,1.63,0.55,1.92-0.51.6-2.33-.21-5-1.26-6.89-2.57-12-3-21,.44-2.27.87-3.88,1.54-4.66,1.42-1.26-.19,0-2.49,2.71-4.73a20.5,20.5,0,0,1,19.66-3.37A17,17,0,0,1,191.19,151.29Zm-1.37,7a12.19,12.19,0,0,0-9-1.8,19.41,19.41,0,0,0-2.15.54,5,5,0,0,0-.73.25,12.41,12.41,0,0,0-4,2.51c-1.44,1.39-1.85,2.68-1.43,3s1.41-.16,2.95-0.78a24.69,24.69,0,0,1,12.29-2c1.68,0.11,2.8.21,3.06-.24S190.63,159,189.82,158.34ZM78.75,184.8h0a10.12,10.12,0,0,1,2,2.08c1.59,2.25,1.08,3.56,1.73,4.19a0.82,0.82,0,0,0,.91.17c0.9-.37,1.34-1.8,1.43-2.8h0c0.23-2.4-1-5.1-2.72-7h0a14.74,14.74,0,0,0-4-3.21,16.65,16.65,0,0,0-5.55-1.9,20.86,20.86,0,0,0-8,.45h0c-0.5.15-1.13,0.28-1.66,0.49a18.27,18.27,0,0,0-11.32,11.92h0a20.89,20.89,0,0,0-.4,10.42h0A14.05,14.05,0,0,0,54.17,206h0c2,2.12,4.11,1.71,3.19-.26A17.06,17.06,0,0,1,55.81,199a19.92,19.92,0,0,1,1.23-7.9,14.85,14.85,0,0,1,2.23-3.86,14.18,14.18,0,0,1,4.68-3.65h0c0.34-.18.69-0.3,1.08-0.48a4.54,4.54,0,0,1,.51-0.17,13.29,13.29,0,0,1,1.76-.46h0A13.42,13.42,0,0,1,78.75,184.8Zm-1,9a2.79,2.79,0,0,1-1.12-1.61,2.15,2.15,0,0,1,.91-2.65c0.8-.55,1.44-0.81,1.45-1.16,0-.65-2.64-1.32-4.51.52a5.81,5.81,0,0,0,.43,7.79c2.76,3,7.05,3.68,7.72,7.42a7.12,7.12,0,0,1,.11,1.7,9,9,0,0,1-.23,1.69c-0.83,3.62-4.26,7.07-9.92,6.19-1-.15-1.72-0.28-1.92,0-0.44.61,2,3.38,6.43,3.28a11.08,11.08,0,0,0,10-8.23A12.44,12.44,0,0,0,87.6,206a11.16,11.16,0,0,0-.16-2.86C86.31,196.9,80.07,195.61,77.76,193.76Zm151.39-44.81c-1.72-.27-3.41,1.42-3.77,3.78s0.73,4.48,2.44,4.75,3.41-1.42,3.77-3.78S230.86,149.22,229.14,148.95Zm-18.86,6.87c-0.94,1.72.21,4.17,2.57,5.46s5,0.95,6-.78-0.21-4.17-2.57-5.46S211.23,154.09,210.28,155.81Zm-69.1-69.64c32.48-21.05,64.93-23.47,76-14.93h0c0-.06-0.2-0.55-0.27-0.68h0c-2.82-6-9.41-10.18-15.27-11.86a22.89,22.89,0,0,1,3.12,4.19,46.73,46.73,0,0,0-16.45-7s0.73,0.53.86,0.64A15.85,15.85,0,0,1,192.73,61c-5.87-2.36-13.29-3.68-19.64-2.45l-0.79.18,1,0.26c2.11,0.62,5.11,1.91,6.44,3.67-10.54-1.85-22.14.2-28.39,3.7a14.49,14.49,0,0,1,1.48,0c2.3,0.06,6.94.37,8.88,1.61-6.65,1.35-16.27,4.33-21.45,8.78,0.91-.11,6.11-0.77,8.23-0.43-28.51,16.32-41.49,41-41.49,41h0A134.29,134.29,0,0,1,141.18,86.17Z"/><path class="cls-1" d="M217.82,132.17c0-2.24.31-5.94,2.42-6.63h0c3.6-1.25,8.37,8,8.59,16.17A18.05,18.05,0,0,0,219.2,140,27.73,27.73,0,0,1,217.82,132.17Z"/></g></svg>