<svg id="Layer_1" data-name="Layer 1" xmlns="http://www.w3.org/2000/svg" viewBox="0 0 310 310"><defs><style>.cls-1{fill:#fff;}</style></defs><title>slack-icon</title><g id="slack_white" data-name="slack white"><rect class="cls-1" x="133.15" y="134.45" width="42.7" height="41.1" transform="translate(-41.23 57.09) rotate(-18.52)"/><path class="cls-1" d="M293.32,113.35C262.09,9.23,217-15.06,112.85,16.18S-15.56,92.53,15.68,196.65,92,325.06,196.15,293.82,324.56,217.47,293.32,113.35Zm-52.66,67.59L221,187.52l6.8,20.31a15.71,15.71,0,1,1-29.79,10l-6.8-20.31L150.76,211l6.8,20.31a15.71,15.71,0,1,1-29.79,10L121,221l-19.64,6.58a15.71,15.71,0,0,1-10-29.79L111,191.24l-13.05-39-19.63,6.57a15.71,15.71,0,0,1-10-29.79L88,122.48l-6.8-20.31a15.71,15.71,0,1,1,29.79-10l6.8,20.31L158.24,99l-6.8-20.31a15.71,15.71,0,1,1,29.79-10L188,89l19.63-6.58a15.71,15.71,0,0,1,10,29.79L198,118.76l13.05,39,19.63-6.58A15.71,15.71,0,0,1,240.66,180.94Z"/></g></svg>