<svg id="Layer_1" data-name="Layer 1" xmlns="http://www.w3.org/2000/svg" viewBox="0 0 310 310"><defs><style>.cls-1{fill:#fff;}</style></defs><title>stripe-icon</title><path id="Stripe" class="cls-1" d="M178.5,120.83c-26-9.61-40.22-17.09-40.22-28.83,0-10,8.19-15.66,22.78-15.66,26.7,0,54.11,10.32,73,19.58L244.7,30.06c-15-7.12-45.56-18.87-87.92-18.87-29.9,0-54.82,7.83-72.62,22.43C65.66,48.92,56,71,56,97.69c0,48.41,29.54,69.06,77.6,86.5,31,11,41.29,18.87,41.29,31,0,11.75-10,18.51-28.12,18.51-22.43,0-59.44-11-83.65-25.27L52.49,275c20.65,11.75,59.09,23.85,99,23.85,31.68,0,58-7.48,75.82-21.71,19.93-15.66,30.26-38.8,30.26-68.7,0-49.48-30.26-70.12-79-87.57h0Z"/></svg>