<svg id="Layer_1" data-name="Layer 1" xmlns="http://www.w3.org/2000/svg" viewBox="0 0 310 310"><defs><style>.cls-1{fill:#fff;}</style></defs><title>Artboard 1</title><g id="TotalVoice"><path class="cls-1" d="M177.43,5c-7.16,2.35-14.64,10-16.38,16.89-.72,2.76-1.13,14-1.13,28.45,0,13.1-.51,25.48-1,27.43A20.64,20.64,0,0,1,155,84.51c-1.54,1.74-6.65,7.88-11.36,13.61s-9.52,11.05-10.75,11.87c-1.74,1.33-8.29,1.54-38.38,1.54-35.11,0-36.33.1-40.63,2.25a26.44,26.44,0,0,0-12.28,12.69c-1.74,3.58-1.94,6.65-1.94,29.07,0,24.87,0,25.08,2.56,29.58a41.28,41.28,0,0,0,7.47,8.7l5,4.2,38.48.51c21.29.41,39.4,1,40.33,1.43,3,1.33,24.26,26.92,25.79,30.81.41,1.13.72,13.41.61,27.22,0,14.74.41,27.33,1,30.19,1.43,6.35,7,13.1,13.2,16.07,4.61,2.15,5.73,2.25,39.51,2.25,33.47,0,35-.1,39.4-2.15,5.22-2.56,9.11-6.55,12.18-12.59,2-3.79,2.15-5.94,2.15-28.76,0-23.95-.1-24.77-2.46-29.48-3-5.83-6.55-9.62-11.67-12.18-3.38-1.64-7.47-1.94-40.12-2.35-36.85-.51-39.51-.82-41.66-4.5-.72-1.23-5.63-7.16-11.57-13.92-1.23-1.43-4.4-5.32-7.06-8.7l-4.71-6.14-.31-30c-.31-35.11-1-32.24,10.34-45.24,1.23-1.43,5.12-6.14,8.7-10.44l6.45-7.88,37.56-.31c36.95-.31,37.66-.31,42-2.66,6.14-3.28,9.83-7.06,12.38-12.69,1.94-4.5,2.15-6.55,2.15-28.76,0-21.6-.2-24.46-2-28.45a26.18,26.18,0,0,0-13-13.51c-4.71-2.15-6.24-2.25-37.15-2.46C186.44,3.14,182.34,3.34,177.43,5Z"/></g></svg>